<?xml version="1.0" standalone="no"?> <!DOCTYPE svg PUBLIC "-//W3C//DTD SVG 20010904//EN" "http://www.w3.org/TR/2001/REC-SVG-20010904/DTD/svg10.dtd"> <svg version="1.0" xmlns="http://www.w3.org/2000/svg" width="96.000000pt" height="96.000000pt" viewBox="0 0 96.000000 96.000000" preserveAspectRatio="xMidYMid meet"> <g transform="translate(0.000000,96.000000) scale(0.100000,-0.100000)" fill="#1d901f" stroke="none"> <path d="M434 785 c-23 -18 -2 -20 26 -3 16 10 24 10 40 0 11 -6 26 -12 33 -12 23 0 77 -56 77 -79 0 -12 4 -20 9 -16 11 6 -6 65 -18 65 -4 0 -17 9 -29 20 -43 40 -104 51 -138 25z"/> <path d="M383 765 c-40 -28 -79 -144 -54 -159 5 -4 8 6 6 21 -3 33 28 101 58 125 27 21 18 33 -10 13z"/> <path d="M433 722 c-6 -4 18 -7 53 -7 35 0 56 3 47 7 -24 9 -85 9 -100 0z"/> <path d="M392 640 c0 -19 2 -27 5 -17 2 9 2 25 0 35 -3 9 -5 1 -5 -18z"/> <path d="M630 655 c-8 -45 -8 -47 2 -37 5 5 8 18 5 28 -3 11 -6 15 -7 9z"/> <path d="M562 630 c0 -14 2 -19 5 -12 2 6 2 18 0 25 -3 6 -5 1 -5 -13z"/> <path d="M610 580 c0 -10 -8 -23 -17 -29 -10 -5 -14 -13 -10 -17 9 -10 36 26 37 49 0 9 -2 17 -5 17 -3 0 -5 -9 -5 -20z"/> <path d="M412 574 c10 -10 20 -16 22 -13 3 3 -5 11 -17 18 -21 13 -21 12 -5 -5z"/> <path d="M536 575 c-11 -8 -36 -15 -55 -16 -28 0 -32 -2 -16 -8 23 -9 68 4 86 25 15 18 9 17 -15 -1z"/> <path d="M350 554 c14 -22 59 -58 66 -52 2 3 -14 19 -37 37 -23 19 -35 25 -29 15z"/> <path d="M550 515 c-8 -9 -8 -15 -2 -15 12 0 26 19 19 26 -2 2 -10 -2 -17 -11z"/> <path d="M430 502 c0 -21 62 -30 90 -12 10 6 5 9 -20 8 -19 -1 -43 2 -52 6 -11 5 -18 4 -18 -2z"/> <path d="M453 433 c15 -2 39 -2 55 0 15 2 2 4 -28 4 -30 0 -43 -2 -27 -4z"/> <path d="M323 415 c-55 -15 -118 -50 -142 -79 -20 -24 -3 -19 33 9 17 14 36 29 41 33 17 13 92 35 123 36 17 1 28 4 25 9 -6 10 -18 8 -80 -8z"/> <path d="M557 423 c-3 -4 9 -9 26 -10 18 -1 43 -5 57 -8 17 -4 20 -3 10 4 -22 13 -88 23 -93 14z"/> <path d="M710 383 c0 -5 14 -19 30 -31 17 -13 30 -32 31 -45 0 -21 1 -21 8 -2 5 12 4 25 -2 33 -16 21 -67 54 -67 45z"/> <path d="M390 363 c0 -5 28 -7 62 -5 113 5 125 9 31 10 -51 1 -93 -1 -93 -5z"/> <path d="M626 351 c-5 -8 72 -46 80 -39 1 2 -15 13 -36 26 -21 12 -41 18 -44 13z"/> <path d="M280 330 l-25 -20 33 11 c34 12 52 29 30 29 -7 0 -24 -9 -38 -20z"/> <path d="M162 233 l-2 -73 320 0 320 0 -2 68 -1 67 -6 -60 -6 -60 -307 -3 -307 -2 -4 67 -3 68 -2 -72z"/> <path d="M231 268 c0 -18 6 -31 18 -38 12 -6 105 -10 233 -10 233 0 254 4 245 51 -4 23 -4 23 -6 -3 l-1 -28 -239 0 -240 0 -4 28 -4 27 -2 -27z"/> </g> </svg>